# xmcd
# Copyright (c) 1998 CDDB Inc.
#
# Track frame offsets:
#	182
#	14255
#	25857
#	38227
#	50542
#	63622
#	81242
#	94527
#	105917
#	115067
#	128107
#	142637
#	156245
#	169187
#
# Disc length: 2435 seconds
#
# Revision: 2
# Processed by: cddbd v1.4b41PL1 Copyright (c) Steve Scherf et al.
# Submitted via: audiograbber 1.70
#
DISCID=a909810e
DTITLE=Petula Clark - Downtown
DYEAR=1900
DGENRE=
TTITLE0=Downtown
TTITLE1=With All My Heart
TTITLE2=My Love
TTITLE3=I Know a Place
TTITLE4=A Sign Of The Times
TTITLE5=Kiss Me Goodbye
TTITLE6=You'd Better Come Home
TTITLE7=Chariot
TTITLE8=Alone
TTITLE9=I Couldn't Live without Your love
TTITLE10=This Is My Song
TTITLE11=Don't Give Up
TTITLE12=The Other Man's Grass
TTITLE13=Don't Sleep In the Subway
EXTD=Os Grandes Sucessos de PETULA CLARK
EXTT0=
EXTT1=
EXTT2=
EXTT3=
EXTT4=
EXTT5=
EXTT6=
EXTT7=
EXTT8=
EXTT9=
EXTT10=
EXTT11=
EXTT12=
EXTT13=
PLAYORDER=
